<svg xmlns="http://www.w3.org/2000/svg" width="36.13" height="44.044" viewBox="0 0 36.13 44.044">
  <g id="file" transform="translate(-46.001)">
    <path id="패스_16" data-name="패스 16" d="M168.633,190.006H151.858a.86.86,0,1,0,0,1.72h16.775a.86.86,0,0,0,0-1.72Z" transform="translate(-95.965 -173.661)" fill="#fff"/>
    <path id="패스_17" data-name="패스 17" d="M127.507,235.008H106.861a.86.86,0,1,0,0,1.72h20.645a.86.86,0,1,0,0-1.72Z" transform="translate(-54.839 -214.792)" fill="#fff"/>
    <path id="패스_18" data-name="패스 18" d="M106.861,146.725h20.645a.86.86,0,1,0,0-1.72H106.861a.86.86,0,1,0,0,1.72Z" transform="translate(-54.839 -132.531)" fill="#fff"/>
    <path id="패스_19" data-name="패스 19" d="M115.462,280.009h-8.6a.86.86,0,0,0,0,1.72h8.6a.86.86,0,0,0,0-1.72Z" transform="translate(-54.838 -255.922)" fill="#fff"/>
    <path id="패스_20" data-name="패스 20" d="M112.023,325.011h-5.161a.86.86,0,1,0,0,1.72h5.161a.86.86,0,1,0,0-1.72Z" transform="translate(-54.839 -297.053)" fill="#fff"/>
    <path id="패스_21" data-name="패스 21" d="M106.858,191.726a.86.86,0,1,0,0-1.72h0a.86.86,0,0,0,0,1.72Z" transform="translate(-54.836 -173.661)" fill="#fff"/>
    <path id="패스_22" data-name="패스 22" d="M295.466,345.337a2.564,2.564,0,0,0-1.825.756l-2.763,2.763-.469-.469a2.58,2.58,0,0,0-3.649,3.649l2.294,2.294a2.584,2.584,0,0,0,3.649,0l4.588-4.588a2.58,2.58,0,0,0-1.825-4.405Zm.608,3.189-4.588,4.588a.861.861,0,0,1-1.216,0l-2.294-2.294a.86.86,0,1,1,1.216-1.216l1.078,1.078a.86.86,0,0,0,1.217,0l3.371-3.371a.86.86,0,0,1,1.217,1.216Z" transform="translate(-219.357 -315.63)" fill="#fff"/>
    <path id="패스_23" data-name="패스 23" d="M79.55,25.119h-.86V1.72A1.722,1.722,0,0,0,76.969,0H55.464a.86.86,0,0,0-.608.252l-8.6,8.6A.86.86,0,0,0,46,9.463V38.882a1.722,1.722,0,0,0,1.72,1.72H63.206v.86a2.584,2.584,0,0,0,2.581,2.581H79.55a2.584,2.584,0,0,0,2.581-2.581V27.7a2.584,2.584,0,0,0-2.581-2.581ZM54.6,2.937V8.6H48.938ZM47.721,38.882V10.323H54.6a1.722,1.722,0,0,0,1.72-1.72V1.72H76.969v23.4H65.786A2.584,2.584,0,0,0,63.205,27.7V38.882ZM80.41,41.463a.861.861,0,0,1-.86.86H65.786a.861.861,0,0,1-.86-.86V27.7a.861.861,0,0,1,.86-.86H79.55a.861.861,0,0,1,.86.86Z" transform="translate(0)" fill="#fff"/>
  </g>
</svg>
