<svg xmlns="http://www.w3.org/2000/svg" width="43.646" height="30.552" viewBox="0 0 43.646 30.552">
  <g id="email" transform="translate(0 -72)">
    <g id="그룹_108" data-name="그룹 108" transform="translate(0 72)">
      <path id="패스_15" data-name="패스 15" d="M41.463,72H2.182A2.182,2.182,0,0,0,0,74.182V100.37a2.153,2.153,0,0,0,.414,1.276,2.182,2.182,0,0,0,1.768.906H41.463a2.182,2.182,0,0,0,1.767-.9,2.16,2.16,0,0,0,.415-1.279V74.182A2.182,2.182,0,0,0,41.463,72ZM1.455,99.953V76.784l15,11.584Zm.9,1.144L17.64,89.287l2.849,2.2a2.182,2.182,0,0,0,2.667,0l2.849-2.2L41.292,101.1Zm39.837-1.144-15-11.586,15-11.584Zm0-25.007L22.267,90.335a.727.727,0,0,1-.889,0L1.455,74.945v-.763a.727.727,0,0,1,.727-.727H41.463a.727.727,0,0,1,.727.727Z" transform="translate(0 -72)" fill="#fff"/>
    </g>
  </g>
</svg>
