<svg xmlns="http://www.w3.org/2000/svg" width="43.646" height="43.68" viewBox="0 0 43.646 43.68">
  <g id="calendar_2_" data-name="calendar (2)" transform="translate(2.811 -0.001)">
    <g id="그룹_110" data-name="그룹 110" transform="translate(-2.811 0)">
      <g id="그룹_109" data-name="그룹 109" transform="translate(0 0)">
        <path id="패스_24" data-name="패스 24" d="M37.889,19.342V7.017a3.806,3.806,0,0,0-4.012-3.625H30.639V.782a.677.677,0,0,0-.773-.773H25.274c-.532,0-.918.242-.918.773v2.61H13.722V.782c0-.532-.628-.773-1.16-.773H7.971c-.532,0-1.015.242-1.015.773v2.61H4.007A3.637,3.637,0,0,0,.189,7.017V35.051a3.637,3.637,0,0,0,3.818,3.625H20.151a13.292,13.292,0,0,0,23.684-8.217A13.824,13.824,0,0,0,37.889,19.342Zm-11.6-17.4h2.417v4.35H26.289Zm-17.4,0h2.9v4.35h-2.9ZM2.122,7.017A1.705,1.705,0,0,1,4.007,5.325H6.956V7.162A1.112,1.112,0,0,0,7.971,8.225h4.592a1.257,1.257,0,0,0,1.16-1.063V5.325H24.356V7.162a1.015,1.015,0,0,0,.918,1.063h4.592c.532,0,.773-.532.773-1.063V5.325h3.238a1.879,1.879,0,0,1,2.078,1.692v6.042H2.122ZM4.007,36.743a1.705,1.705,0,0,1-1.885-1.692V14.992H35.956v3.335a14.5,14.5,0,0,0-5.365-1.16,13.292,13.292,0,0,0-11.7,19.575H4.007Zm26.487,5.027A11.359,11.359,0,1,1,41.8,30.363c0,.032,0,.064,0,.1A11.31,11.31,0,0,1,30.494,41.769Z" transform="translate(-0.189 0)" fill="#fff"/>
        <path id="패스_25" data-name="패스 25" d="M314.765,262.855h-4.4v-5.8a.967.967,0,1,0-1.933,0v6.767a1.16,1.16,0,0,0,1.16.967h5.172a.967.967,0,1,0,0-1.933Z" transform="translate(-279.916 -232.396)" fill="#fff"/>
      </g>
    </g>
  </g>
</svg>
