<svg xmlns="http://www.w3.org/2000/svg" width="18.251" height="18.002" viewBox="0 0 18.251 18.002">
  <path id="home_1_" data-name="home (1)" d="M17.043,7.394h0L10.107.458a1.565,1.565,0,0,0-2.214,0L.961,7.389.954,7.4A1.564,1.564,0,0,0,2,10.063l.048,0h.276v5.1A1.834,1.834,0,0,0,4.152,17H6.866a.5.5,0,0,0,.5-.5v-4a.837.837,0,0,1,.836-.836H9.8a.837.837,0,0,1,.836.836v4a.5.5,0,0,0,.5.5h2.713a1.834,1.834,0,0,0,1.832-1.832v-5.1h.256a1.565,1.565,0,0,0,1.108-2.671ZM16.338,8.9a.565.565,0,0,1-.4.167h-.754a.5.5,0,0,0-.5.5v5.6a.837.837,0,0,1-.836.836H11.632V12.5A1.834,1.834,0,0,0,9.8,10.67H8.2A1.834,1.834,0,0,0,6.368,12.5V16H4.152a.837.837,0,0,1-.836-.836v-5.6a.5.5,0,0,0-.5-.5H2.054A.568.568,0,0,1,1.662,8.1h0L8.6,1.162a.569.569,0,0,1,.8,0L16.336,8.1l0,0a.57.57,0,0,1,0,.8Zm0,0" transform="translate(0.125 0.501)" fill="#fff" stroke="#fff" stroke-width="1"/>
</svg>
