<svg xmlns="http://www.w3.org/2000/svg" width="15" height="15" viewBox="0 0 15 15">
  <g id="settings_1_" data-name="settings (1)" transform="translate(-6.71)">
    <g id="그룹_111" data-name="그룹 111" transform="translate(6.71)">
      <path id="패스_26" data-name="패스 26" d="M21.451,9.144,20.035,8.066a5.287,5.287,0,0,0,.033-.566,5.127,5.127,0,0,0-.033-.566l1.417-1.079a.664.664,0,0,0,.168-.861L20.147,2.512a.691.691,0,0,0-.852-.3l-1.671.653a5.767,5.767,0,0,0-1-.567L16.367.575A.676.676,0,0,0,15.687,0H12.735a.674.674,0,0,0-.679.57L11.8,2.3a5.945,5.945,0,0,0-1,.567L9.124,2.214a.705.705,0,0,0-.845.293L6.8,4.991a.66.66,0,0,0,.167.866L8.388,6.934a4.816,4.816,0,0,0,0,1.132L6.97,9.145a.664.664,0,0,0-.167.861l1.472,2.481a.69.69,0,0,0,.852.3l1.671-.653a5.818,5.818,0,0,0,1,.567l.254,1.725a.675.675,0,0,0,.68.576h2.952a.675.675,0,0,0,.68-.57l.255-1.731a5.973,5.973,0,0,0,1-.568l1.675.655a.706.706,0,0,0,.252.046.681.681,0,0,0,.594-.339L21.623,10A.663.663,0,0,0,21.451,9.144ZM14.211,10a2.5,2.5,0,1,1,2.567-2.5A2.537,2.537,0,0,1,14.211,10Z" transform="translate(-6.71)" fill="#aaa"/>
    </g>
  </g>
</svg>
