<svg xmlns="http://www.w3.org/2000/svg" width="27.766" height="19.436" viewBox="0 0 27.766 19.436">
  <g id="email" transform="translate(0 -72)">
    <g id="그룹_108" data-name="그룹 108" transform="translate(0 72)">
      <path id="패스_15" data-name="패스 15" d="M26.378,72H1.388A1.388,1.388,0,0,0,0,73.388v16.66a1.37,1.37,0,0,0,.263.812,1.388,1.388,0,0,0,1.125.577H26.378a1.388,1.388,0,0,0,1.124-.575,1.374,1.374,0,0,0,.264-.814V73.388A1.388,1.388,0,0,0,26.378,72ZM.925,89.783V75.043l9.54,7.369Zm.572.728L11.222,83l1.813,1.4a1.388,1.388,0,0,0,1.7,0L16.544,83l9.725,7.514Zm25.344-.728L17.3,82.412l9.54-7.369Zm0-15.909-12.675,9.79a.463.463,0,0,1-.566,0L.925,73.874v-.485a.463.463,0,0,1,.463-.463H26.378a.463.463,0,0,1,.463.463Z" transform="translate(0 -72)" fill="#fff"/>
    </g>
  </g>
</svg>
