<svg xmlns="http://www.w3.org/2000/svg" width="23.028" height="28.072" viewBox="0 0 23.028 28.072">
  <g id="file" transform="translate(-46.001)">
    <path id="패스_16" data-name="패스 16" d="M162.238,190.006H151.546a.548.548,0,0,0,0,1.1h10.692a.548.548,0,0,0,0-1.1Z" transform="translate(-99.24 -179.588)" fill="#fff"/>
    <path id="패스_17" data-name="패스 17" d="M119.708,235.008H106.549a.548.548,0,0,0,0,1.1h13.159a.548.548,0,1,0,0-1.1Z" transform="translate(-56.71 -222.123)" fill="#fff"/>
    <path id="패스_18" data-name="패스 18" d="M106.549,146.1h13.159a.548.548,0,1,0,0-1.1H106.549a.548.548,0,0,0,0,1.1Z" transform="translate(-56.71 -137.055)" fill="#fff"/>
    <path id="패스_19" data-name="패스 19" d="M112.031,280.009h-5.483a.548.548,0,1,0,0,1.1h5.483a.548.548,0,1,0,0-1.1Z" transform="translate(-56.709 -264.657)" fill="#fff"/>
    <path id="패스_20" data-name="패스 20" d="M109.839,325.011h-3.29a.548.548,0,1,0,0,1.1h3.29a.548.548,0,1,0,0-1.1Z" transform="translate(-56.71 -307.191)" fill="#fff"/>
    <path id="패스_21" data-name="패스 21" d="M106.546,191.1a.548.548,0,1,0,0-1.1h0a.548.548,0,0,0,0,1.1Z" transform="translate(-56.707 -179.588)" fill="#fff"/>
    <path id="패스_22" data-name="패스 22" d="M292.035,345.337a1.634,1.634,0,0,0-1.163.482l-1.761,1.761-.3-.3a1.645,1.645,0,0,0-2.326,2.326l1.462,1.462a1.647,1.647,0,0,0,2.326,0l2.924-2.924a1.645,1.645,0,0,0-1.163-2.808Zm.388,2.032-2.924,2.924a.549.549,0,0,1-.775,0l-1.462-1.462a.548.548,0,0,1,.775-.775l.687.687a.548.548,0,0,0,.775,0l2.149-2.149a.548.548,0,0,1,.775.775Z" transform="translate(-226.844 -326.403)" fill="#fff"/>
    <path id="패스_23" data-name="패스 23" d="M67.384,16.01h-.548V1.1a1.1,1.1,0,0,0-1.1-1.1H52.032a.548.548,0,0,0-.388.161L46.162,5.644A.548.548,0,0,0,46,6.031V24.782a1.1,1.1,0,0,0,1.1,1.1h9.869v.548a1.647,1.647,0,0,0,1.645,1.645h8.772a1.647,1.647,0,0,0,1.645-1.645V17.655a1.647,1.647,0,0,0-1.645-1.645ZM51.484,1.872V5.483H47.873ZM47.1,24.782V6.579h4.386a1.1,1.1,0,0,0,1.1-1.1V1.1H65.739V16.01H58.611a1.647,1.647,0,0,0-1.645,1.645v7.127Zm20.835,1.645a.549.549,0,0,1-.548.548H58.611a.549.549,0,0,1-.548-.548V17.655a.549.549,0,0,1,.548-.548h8.772a.549.549,0,0,1,.548.548Z" transform="translate(0)" fill="#fff"/>
  </g>
</svg>
