<svg xmlns="http://www.w3.org/2000/svg" width="20.599" height="29.236" viewBox="0 0 20.599 29.236">
  <g id="notice_icon" transform="translate(-12.339 -1.998)">
    <path id="패스_27" data-name="패스 27" d="M52.891,16.987H47.737a.418.418,0,0,1-.418-.418V11.418a.418.418,0,0,1,.713-.3l5.155,5.152a.418.418,0,0,1-.3.713Zm-4.737-.835h3.729l-3.729-3.728Z" transform="translate(-20.371 -5.243)" fill="#fff"/>
    <path id="패스_28" data-name="패스 28" d="M32.519,36.47H12.757a.418.418,0,0,1-.418-.418l.008-24.645a.418.418,0,0,1,.418-.418h2.443a.418.418,0,0,1,0,.835H13.183l-.008,23.81H32.1v-18.9l-4.909-4.909h-8.71a.418.418,0,1,1,0-.835h8.883a.418.418,0,0,1,.3.122l5.154,5.153a.418.418,0,0,1,.122.3v19.49A.418.418,0,0,1,32.519,36.47Z" transform="translate(0 -5.237)" fill="#fff"/>
    <path id="패스_29" data-name="패스 29" d="M33.536,38.518H18.926a.418.418,0,0,1,0-.835h14.61a.418.418,0,0,1,0,.835Z" transform="translate(-3.593 -20.782)" fill="#fff"/>
    <path id="패스_30" data-name="패스 30" d="M33.536,46.518H18.926a.418.418,0,0,1,0-.835h14.61a.418.418,0,0,1,0,.835Z" transform="translate(-3.593 -25.44)" fill="#fff"/>
    <path id="패스_31" data-name="패스 31" d="M33.536,54.518H18.926a.418.418,0,1,1,0-.835h14.61a.418.418,0,1,1,0,.835Z" transform="translate(-3.593 -30.099)" fill="#fff"/>
    <path id="패스_32" data-name="패스 32" d="M33.536,62.518H18.926a.418.418,0,1,1,0-.835h14.61a.418.418,0,1,1,0,.835Z" transform="translate(-3.593 -34.758)" fill="#fff"/>
    <path id="패스_33" data-name="패스 33" d="M18.48,17.243a.418.418,0,0,1-.412-.347A3.777,3.777,0,0,1,24.8,14.164a.418.418,0,0,1-.188.623l-5.976,2.426A.42.42,0,0,1,18.48,17.243Zm3.412-3.712a3.123,3.123,0,0,0-1.175.231,2.9,2.9,0,0,0-1.856,2.457l4.9-1.989a2.747,2.747,0,0,0-1.869-.7Z" transform="translate(-3.317 -6.223)" fill="#fff"/>
    <path id="패스_34" data-name="패스 34" d="M18.922,10.97a.418.418,0,0,1-.387-.261L17.447,8.028a.418.418,0,0,1,.23-.543l2.809-1.14a.418.418,0,0,1,.543.23l1.086,2.678a.418.418,0,0,1-.774.314l-.928-2.293L18.378,8.1l.931,2.295a.418.418,0,0,1-.387.575Z" transform="translate(-2.957 -2.514)" fill="#fff"/>
    <path id="패스_35" data-name="패스 35" d="M25.805,23.466a.418.418,0,0,1-.334-.165l-3.14-4.135a.418.418,0,0,1,.175-.64l2.51-1.019a.418.418,0,0,1,.571.334L26.219,23a.418.418,0,0,1-.257.438.424.424,0,0,1-.157.029ZM23.328,19.1l1.875,2.47-.376-3.078Z" transform="translate(-5.769 -9.015)" fill="#fff"/>
    <path id="패스_36" data-name="패스 36" d="M15.455,5.774a.415.415,0,0,1-.186-.042l-1.707-.854a.418.418,0,0,1,.029-.761l5.147-2.088a.418.418,0,0,1,.552.525l-.631,1.8a.418.418,0,0,1-.237.251l-2.809,1.14A.418.418,0,0,1,15.455,5.774Zm-.693-1.231.71.355,2.459-1,.263-.752Z" transform="translate(-0.577)" fill="#fff"/>
  </g>
</svg>
