<svg xmlns="http://www.w3.org/2000/svg" width="22.467" height="30" viewBox="0 0 22.467 30">
  <g id="name_icon" transform="translate(4.582)">
    <path id="패스_55" data-name="패스 55" d="M146.709,178.833a3.416,3.416,0,1,0-3.416-3.416A3.416,3.416,0,0,0,146.709,178.833Zm0-5.5a2.095,2.095,0,1,1-2.095,2.095A2.094,2.094,0,0,1,146.709,173.328Zm0,0" transform="translate(-140.058 -162.907)" fill="#43a78b"/>
    <path id="패스_56" data-name="패스 56" d="M113.915,325.122a5.127,5.127,0,0,0-3.714,1.553,5.481,5.481,0,0,0-1.533,3.879.663.663,0,0,0,.661.661H118.5a.663.663,0,0,0,.661-.661,5.481,5.481,0,0,0-1.533-3.879,5.127,5.127,0,0,0-3.713-1.553Zm-3.879,4.771a4.041,4.041,0,0,1,1.11-2.293,3.892,3.892,0,0,1,5.537,0,4.063,4.063,0,0,1,1.11,2.293Zm0,0" transform="translate(-107.263 -307.935)" fill="#43a78b"/>
    <path id="패스_57" data-name="패스 57" d="M14.581,0H-1.278a3.305,3.305,0,0,0-3.3,3.3V26.7a3.305,3.305,0,0,0,3.3,3.3H14.581a3.305,3.305,0,0,0,3.3-3.3V3.3A3.305,3.305,0,0,0,14.581,0Zm1.982,26.7a1.988,1.988,0,0,1-1.982,1.982H-1.278A1.988,1.988,0,0,1-3.26,26.7V3.3A1.988,1.988,0,0,1-1.278,1.322H14.581A1.988,1.988,0,0,1,16.563,3.3Zm0,0" fill="#43a78b"/>
    <path id="패스_58" data-name="패스 58" d="M143.954,60.2h5.286a.661.661,0,1,0,0-1.322h-5.286a.661.661,0,1,0,0,1.322Zm0,0" transform="translate(-140.058 -55.763)" fill="#43a78b"/>
  </g>
</svg>
