<svg xmlns="http://www.w3.org/2000/svg" width="30.638" height="30" viewBox="0 0 30.638 30">
  <g id="user" transform="translate(0 -4.923)">
    <g id="그룹_118" data-name="그룹 118" transform="translate(2.553 20.242)">
      <g id="그룹_117" data-name="그룹 117">
        <path id="패스_59" data-name="패스 59" d="M43.853,241.231a4.468,4.468,0,1,0,4.468,4.468A4.441,4.441,0,0,0,43.853,241.231Zm0,7.66a3.192,3.192,0,1,1,3.192-3.192A3.161,3.161,0,0,1,43.853,248.891Z" transform="translate(-39.385 -241.231)" fill="#5b8ae2"/>
      </g>
    </g>
    <g id="그룹_120" data-name="그룹 120" transform="translate(0 27.902)">
      <g id="그룹_119" data-name="그룹 119">
        <path id="패스_60" data-name="패스 60" d="M7.021,359.385A7,7,0,0,0,0,366.406H1.277a5.745,5.745,0,1,1,11.489,0h1.277A7,7,0,0,0,7.021,359.385Z" transform="translate(0 -359.385)" fill="#5b8ae2"/>
      </g>
    </g>
    <g id="그룹_122" data-name="그룹 122" transform="translate(19.149 20.242)">
      <g id="그룹_121" data-name="그룹 121">
        <path id="패스_61" data-name="패스 61" d="M299.853,241.231a4.468,4.468,0,1,0,4.468,4.468A4.441,4.441,0,0,0,299.853,241.231Zm0,7.66a3.192,3.192,0,1,1,3.192-3.192A3.161,3.161,0,0,1,299.853,248.891Z" transform="translate(-295.385 -241.231)" fill="#5b8ae2"/>
      </g>
    </g>
    <g id="그룹_124" data-name="그룹 124" transform="translate(16.596 27.902)">
      <g id="그룹_123" data-name="그룹 123">
        <path id="패스_62" data-name="패스 62" d="M263.021,359.385A7,7,0,0,0,256,366.406h1.277a5.745,5.745,0,1,1,11.489,0h1.277A7,7,0,0,0,263.021,359.385Z" transform="translate(-256 -359.385)" fill="#5b8ae2"/>
      </g>
    </g>
    <g id="그룹_126" data-name="그룹 126" transform="translate(10.851 4.923)">
      <g id="그룹_125" data-name="그룹 125">
        <path id="패스_63" data-name="패스 63" d="M171.853,4.923a4.468,4.468,0,1,0,4.468,4.468A4.441,4.441,0,0,0,171.853,4.923Zm0,7.66a3.192,3.192,0,1,1,3.192-3.192A3.161,3.161,0,0,1,171.853,12.583Z" transform="translate(-167.385 -4.923)" fill="#5b8ae2"/>
      </g>
    </g>
    <g id="그룹_128" data-name="그룹 128" transform="translate(8.298 12.583)">
      <g id="그룹_127" data-name="그룹 127" transform="translate(0 0)">
        <path id="패스_64" data-name="패스 64" d="M135.021,123.077A7,7,0,0,0,128,130.1h1.277a5.745,5.745,0,1,1,11.489,0h1.277A7,7,0,0,0,135.021,123.077Z" transform="translate(-128 -123.077)" fill="#5b8ae2"/>
      </g>
    </g>
  </g>
</svg>
