<svg xmlns="http://www.w3.org/2000/svg" width="31.312" height="30" viewBox="0 0 31.312 30">
  <path id="star_1_" data-name="star (1)" d="M30.633,14.643a2.246,2.246,0,0,0-1.245-3.83l-7.582-1.1a.99.99,0,0,1-.746-.542L17.67,2.3a2.246,2.246,0,0,0-4.027,0l-3.39,6.87a.991.991,0,0,1-.747.542l-7.582,1.1A2.245,2.245,0,0,0,.68,14.643L6.165,19.99a.993.993,0,0,1,.286.878L5.157,28.419a2.245,2.245,0,0,0,3.258,2.367l6.78-3.565a.993.993,0,0,1,.923,0L22.9,30.786a2.245,2.245,0,0,0,3.258-2.367l-1.3-7.55a.992.992,0,0,1,.286-.878ZM23.626,21.08l1.295,7.55a.992.992,0,0,1-1.438,1.046L16.7,26.111a2.246,2.246,0,0,0-2.09,0l-6.78,3.565a.992.992,0,0,1-1.439-1.046l1.295-7.55a2.246,2.246,0,0,0-.646-1.988L1.555,13.745A.992.992,0,0,1,2.1,12.053l7.581-1.1a2.242,2.242,0,0,0,1.691-1.228l3.39-6.87a.992.992,0,0,1,1.779,0l3.39,6.87a2.241,2.241,0,0,0,1.69,1.228l7.582,1.1a.992.992,0,0,1,.549,1.692l-5.486,5.347A2.245,2.245,0,0,0,23.626,21.08Z" transform="translate(0 -1.047)" fill="#ffc107"/>
</svg>
