<svg xmlns="http://www.w3.org/2000/svg" width="29.062" height="30" viewBox="0 0 29.062 30">
  <g id="recent_search_icon" transform="translate(-0.002 0)">
    <g id="그룹_114" data-name="그룹 114" transform="translate(0.002 0)">
      <g id="그룹_113" data-name="그룹 113" transform="translate(0 0)">
        <path id="패스_53" data-name="패스 53" d="M28.212,14.121a.866.866,0,0,0-.851.879A13.055,13.055,0,0,1,14.533,28.242,13.055,13.055,0,0,1,1.7,15,13.055,13.055,0,0,1,14.533,1.758a12.466,12.466,0,0,1,6.128,1.606L19.6,4.463a.9.9,0,0,0-.185.958.852.852,0,0,0,.787.543h4.074a.866.866,0,0,0,.851-.879V.879A.88.88,0,0,0,24.6.067a.832.832,0,0,0-.928.191L21.91,2.075A14.188,14.188,0,0,0,4.258,4.393,15.149,15.149,0,0,0,0,15,15.149,15.149,0,0,0,4.258,25.607a14.212,14.212,0,0,0,20.55,0A15.148,15.148,0,0,0,29.064,15,.865.865,0,0,0,28.212,14.121Z" transform="translate(-0.002 0)" fill="#c07b2e"/>
      </g>
    </g>
    <g id="그룹_116" data-name="그룹 116" transform="translate(14.013 8.758)">
      <g id="그룹_115" data-name="그룹 115">
        <path id="패스_54" data-name="패스 54" d="M246.859,149.669H242.58V145.39a.789.789,0,0,0-1.577,0v5.068a.789.789,0,0,0,.789.789h5.068a.789.789,0,1,0,0-1.577Z" transform="translate(-241.003 -144.601)" fill="#c07b2e"/>
      </g>
    </g>
  </g>
</svg>
