<svg xmlns="http://www.w3.org/2000/svg" width="12.772" height="14.532" viewBox="0 0 12.772 14.532">
  <g id="user_icon" transform="translate(-31)">
    <g id="그룹_130" data-name="그룹 130" transform="translate(33.554)">
      <g id="그룹_129" data-name="그룹 129" transform="translate(0)">
        <path id="패스_65" data-name="패스 65" d="M124.832,0a3.832,3.832,0,1,0,3.832,3.832A3.836,3.836,0,0,0,124.832,0Zm0,6.812c-1.643,0,.116,1.8.116.152s-1.643,0,0,0,0-1.8,0-.152S126.475,6.812,124.832,6.812Z" transform="translate(-121)" fill="#a1a1a1"/>
      </g>
    </g>
    <g id="그룹_132" data-name="그룹 132" transform="translate(31 8.515)">
      <g id="그룹_131" data-name="그룹 131" transform="translate(0)">
        <path id="패스_66" data-name="패스 66" d="M42.153,301.652A5.462,5.462,0,0,0,38.238,300h-1.7a5.462,5.462,0,0,0-3.916,1.652A5.584,5.584,0,0,0,31,305.591a.426.426,0,0,0,.426.426H43.347a.426.426,0,0,0,.426-.426A5.584,5.584,0,0,0,42.153,301.652Zm-3.5,3.81c.213-2.415-2.361,0,.08,0h-.08c2.441,0-.213-2.415,0,0Z" transform="translate(-31 -300)" fill="#a1a1a1"/>
      </g>
    </g>
  </g>
</svg>
