<svg xmlns="http://www.w3.org/2000/svg" width="37.005" height="39.993" viewBox="0 0 37.005 39.993">
  <g id="quick_payment_icon_2" transform="translate(-12.3 0.025)">
    <path id="패스_40" data-name="패스 40" d="M239.866,2.26A1.339,1.339,0,0,1,241.76.366l5.17,5.17a1.335,1.335,0,0,1-.947,2.282,1.374,1.374,0,0,1-.947-.388Z" transform="translate(-199.604)" fill="#0389b9"/>
    <path id="패스_41" data-name="패스 41" d="M47.97,307.5H13.635a1.335,1.335,0,0,0,0,2.67H47.97a1.335,1.335,0,0,0,0-2.67Z" transform="translate(0 -270.202)" fill="#555"/>
    <path id="패스_42" data-name="패스 42" d="M55.152,35.337l-5.17-5.17a1.34,1.34,0,0,0-1.893,0L27.578,50.677a1.336,1.336,0,0,0-.352.607L25.381,58.3a1.338,1.338,0,0,0,1.3,1.675,1.1,1.1,0,0,0,.34-.049l7.015-1.833a1.337,1.337,0,0,0,.607-.352L55.152,37.23a1.348,1.348,0,0,0,0-1.893ZM33,55.6,28.549,56.77l1.165-4.454L49.048,33.006l3.277,3.277Z" transform="translate(-11.455 -26.183)" fill="#0389b9"/>
  </g>
</svg>
