<svg xmlns="http://www.w3.org/2000/svg" width="40" height="40" viewBox="0 0 40 40">
  <g id="quick_schedule_icon" transform="translate(-16 -16)">
    <path id="패스_37" data-name="패스 37" d="M55.333,20h-2v-.667a.667.667,0,0,0-.667-.667H48V18a2,2,0,1,0-4,0v.667H42.667V18a2,2,0,0,0-4,0v.667h-8V18a2,2,0,0,0-4,0v.667H25.333V18a2,2,0,0,0-4,0v.667H16.667a.667.667,0,0,0-.667.667V52.667a.667.667,0,0,0,.667.667h.667v2A.667.667,0,0,0,18,56H55.333A.667.667,0,0,0,56,55.333V20.667A.667.667,0,0,0,55.333,20Zm-38,32V28H52V52Zm28-34a.667.667,0,1,1,1.333,0v.667H45.333ZM40,18a.667.667,0,1,1,1.333,0v.667H40ZM28,18a.667.667,0,1,1,1.333,0v.667H28Zm-5.333,0A.667.667,0,1,1,24,18v.667H22.667Zm-1.333,2v.667a2,2,0,0,0,2,2,.667.667,0,1,0,0-1.333.667.667,0,0,1-.667-.667V20h4v.667a2,2,0,0,0,2,2,.667.667,0,1,0,0-1.333A.667.667,0,0,1,28,20.667V20H38.667v.667a2,2,0,0,0,2,2,.667.667,0,0,0,0-1.333A.667.667,0,0,1,40,20.667V20h4v.667a2,2,0,0,0,2,2,.667.667,0,1,0,0-1.333.667.667,0,0,1-.667-.667V20H52v6.667H17.333V20ZM54.667,54.667h-36V53.333h34a.667.667,0,0,0,.667-.667V21.333h1.333Z" fill="#555"/>
    <path id="패스_38" data-name="패스 38" d="M137.333,210.667a9.333,9.333,0,1,1,9.333-9.333A9.333,9.333,0,0,1,137.333,210.667Zm0-17.333a8,8,0,1,0,5.538,2.227A8,8,0,0,0,137.333,193.333Z" transform="translate(-102.667 -161.333)" fill="#0389b9"/>
    <path id="패스_39" data-name="패스 39" d="M186,244.667h-4v-4a.667.667,0,0,0-1.333,0v4h-4a.667.667,0,1,0,0,1.333h4v4A.667.667,0,0,0,182,250v-4h4a.667.667,0,1,0,0-1.333Z" transform="translate(-146.667 -205.333)" fill="#0389b9"/>
  </g>
</svg>
