<svg xmlns="http://www.w3.org/2000/svg" width="41.052" height="40" viewBox="0 0 41.052 40">
  <g id="write-mail" transform="translate(-16 -8)">
    <path id="패스_43" data-name="패스 43" d="M144.737,193.473h19.152a.737.737,0,0,0,0-1.473H144.737a.737.737,0,0,0,0,1.473Z" transform="translate(-117.787 -169.231)" fill="#0389b9"/>
    <path id="패스_44" data-name="패스 44" d="M144.737,233.473h19.152a.737.737,0,0,0,0-1.473H144.737a.737.737,0,0,0,0,1.473Z" transform="translate(-117.787 -206.021)" fill="#0389b9"/>
    <path id="패스_45" data-name="패스 45" d="M222.63,272h-5.893a.737.737,0,0,0,0,1.473h5.893a.737.737,0,0,0,0-1.473Z" transform="translate(-183.157 -242.81)" fill="#0389b9"/>
    <path id="패스_46" data-name="패스 46" d="M19.421,48h34.21a3.331,3.331,0,0,0,3.421-3.226V24.129a3.207,3.207,0,0,0-1.691-2.783l-3.783-2.091V11.226A3.331,3.331,0,0,0,48.158,8H24.895a3.331,3.331,0,0,0-3.421,3.226v8.029l-3.783,2.091A3.207,3.207,0,0,0,16,24.129V44.774A3.331,3.331,0,0,0,19.421,48Zm36.263-3.226a2,2,0,0,1-2.053,1.935H19.421a2,2,0,0,1-2.053-1.935V25.255L34.8,34.888a3.6,3.6,0,0,0,3.46,0l17.428-9.633ZM54.669,22.46a1.95,1.95,0,0,1,.98,1.319l-4.07,2.249V20.751ZM24.895,9.29H48.158a2,2,0,0,1,2.053,1.935V26.785l-12.646,6.99a2.163,2.163,0,0,1-2.076,0l-12.646-6.99V11.226A2,2,0,0,1,24.895,9.29ZM18.383,22.46l3.091-1.709v5.278l-4.07-2.25a1.95,1.95,0,0,1,.98-1.319Z" fill="#555"/>
    <path id="패스_47" data-name="패스 47" d="M144.737,73.473h19.152a.737.737,0,0,0,0-1.473H144.737a.737.737,0,0,0,0,1.473Z" transform="translate(-117.787 -58.107)" fill="#0389b9"/>
    <path id="패스_48" data-name="패스 48" d="M144.737,113.473h19.152a.737.737,0,0,0,0-1.473H144.737a.737.737,0,0,0,0,1.473Z" transform="translate(-117.787 -95.653)" fill="#0389b9"/>
    <path id="패스_49" data-name="패스 49" d="M144.737,153.473h19.152a.737.737,0,0,0,0-1.473H144.737a.737.737,0,0,0,0,1.473Z" transform="translate(-117.787 -132.442)" fill="#0389b9"/>
  </g>
</svg>
